<svg width="480" height="480" fill="none" xmlns="http://www.w3.org/2000/svg">
    <path d="M278.75 141.074c-3.869 0-7.023-3.153-7.023-7.023 0-3.87 3.154-7.023 7.023-7.023 3.87 0 7.023 3.153 7.023 7.023 0 3.87-3.153 7.023-7.023 7.023zm-77.753 0c-3.87 0-7.023-3.153-7.023-7.023 0-3.87 3.153-7.023 7.023-7.023 3.87 0 7.023 3.153 7.023 7.023 0 3.87-3.153 7.023-7.023 7.023zm80.261-42.353l14.046-24.365c.789-1.433.359-3.153-1.075-4.013-1.361-.788-3.153-.358-4.013 1.075L275.955 96.07c-10.892-4.945-23.146-7.74-36.189-7.74-13.042 0-25.297 2.795-36.189 7.74l-14.118-24.652c-.788-1.361-2.58-1.863-4.013-1.075-1.361.789-1.863 2.58-1.075 4.013l14.046 24.366c-24.15 13.114-40.632 37.551-43.069 66.43h168.979c-2.436-28.879-18.918-53.316-43.069-66.43z"
          fill="#3DDC84"/>
    <path d="M410.11 343.107l-338.867.338-37.664 59.88c-4.285 6.766.677 15.562 8.57 15.562l395.702-.677c7.894 0 12.743-8.683 8.683-15.449l-36.424-59.654z"
          fill="#1769E0"/>
    <path d="M410.223 343.106l-338.867.338v-149.98c0-21.088 17.028-38.116 38.116-38.116l262.523.226c21.087 0 38.115 17.14 38.115 38.115v149.417h.113z"
          fill="#4285F4"/>
    <path d="M348.935 106.03c4.73 0 8.564-3.828 8.564-8.55 0-4.722-3.834-8.55-8.564-8.55s-8.565 3.828-8.565 8.55c0 4.722 3.835 8.55 8.565 8.55z"
          fill="#F6DA00"/>
    <path d="M425.564 196.443a4.54 4.54 0 004.544-4.536 4.54 4.54 0 00-4.544-4.536 4.54 4.54 0 00-4.543 4.536 4.54 4.54 0 004.543 4.536zM239.356 41.072a4.54 4.54 0 004.544-4.536A4.54 4.54 0 00239.356 32a4.54 4.54 0 00-4.543 4.536 4.54 4.54 0 004.543 4.536zM59.078 164.42a4.54 4.54 0 004.544-4.536 4.54 4.54 0 00-4.544-4.536 4.54 4.54 0 00-4.543 4.536 4.54 4.54 0 004.543 4.536z"
          fill="#D7EFFE"/>
    <path fill-rule="evenodd" clip-rule="evenodd"
          d="M126.459 114.591c-2.865 2.861-2.875 7.482-.039 10.322 2.836 2.84 7.458 2.837 10.323-.024s2.875-7.482.039-10.322c-2.836-2.84-7.458-2.837-10.323.024zm-1.551 11.833c-3.678-3.683-3.652-9.658.041-13.345 3.692-3.688 9.667-3.706 13.345-.023 3.678 3.683 3.652 9.658-.041 13.346-3.693 3.687-9.668 3.705-13.345.022z"
          fill="#F6DA00"/>
    <path fill-rule="evenodd" clip-rule="evenodd"
          d="M307.036 255.492a3.047 3.047 0 013.047-3.047h40.365a3.047 3.047 0 110 6.093h-40.365a3.047 3.047 0 01-3.047-3.046zM175.277 256.254a3.046 3.046 0 00-3.046-3.046h-41.127a3.046 3.046 0 100 6.092h41.127a3.046 3.046 0 003.046-3.046z"
          fill="#D7EFFE"/>
    <path d="M296.726 245.519l-13.955-2.04c-.752-2.469-1.718-4.723-2.899-6.978l8.374-11.272c.644-.858.536-2.147-.215-2.898l-11.809-11.916c-.751-.859-2.039-.859-2.898-.215l-11.272 8.374c-2.254-1.181-4.509-2.147-6.978-2.899l-2.147-13.848c-.107-1.074-1.073-1.932-2.254-1.932h-16.747c-1.074 0-2.04.858-2.254 1.932l-2.04 13.848c-2.469.752-4.724 1.718-6.978 2.899l-11.272-8.374c-.859-.644-2.147-.537-2.898.215l-11.916 11.916c-.752.751-.859 2.04-.215 2.898l8.373 11.272c-1.18 2.255-2.147 4.509-2.898 6.978l-13.956 2.04c-1.073.107-1.932 1.073-1.932 2.254v16.747c0 1.073.859 2.04 1.932 2.254l13.956 2.04c.751 2.469 1.718 4.723 2.898 6.978l-8.373 11.272c-.644.859-.537 2.147.215 2.898l11.916 11.916c.751.752 2.039.859 2.898.215l11.272-8.374c2.254 1.181 4.509 2.148 6.978 2.899l2.04 13.956c.107 1.073 1.073 1.932 2.254 1.932h16.747c1.073 0 2.039-.859 2.254-1.932l2.04-13.956c2.469-.751 4.723-1.718 6.978-2.899l11.271 8.374c.859.644 2.148.537 2.899-.215l11.916-11.808c.751-.752.859-2.04.215-2.899l-8.374-11.272c1.181-2.254 2.147-4.509 2.899-6.978l13.955-2.039c1.074-.108 1.933-1.074 1.933-2.255v-16.854c0-1.073-.859-2.039-1.933-2.254zm-54.427 39.076c-15.673 0-28.448-12.775-28.448-28.448 0-15.674 12.775-28.449 28.448-28.449 15.674 0 28.448 12.775 28.448 28.449 0 15.673-12.774 28.448-28.448 28.448z"
          fill="#D7EFFE"/>
    <path fill-rule="evenodd" clip-rule="evenodd"
          d="M310.303 192.278h41.669a3.046 3.046 0 010 6.093H312.91l-15.094 15.812a3.046 3.046 0 11-4.407-4.207l16.894-17.698zM171.25 192.278h-41.669a3.047 3.047 0 100 6.093h39.062l15.093 15.812a3.046 3.046 0 004.408-4.207l-16.894-17.698zM310.303 320.229h41.669a3.046 3.046 0 100-6.092H312.91l-15.094-15.813a3.046 3.046 0 10-4.407 4.207l16.894 17.698zM171.25 320.229h-41.669a3.046 3.046 0 110-6.092h39.062l15.093-15.813a3.046 3.046 0 014.408 4.207l-16.894 17.698z"
          fill="#D7EFFE"/>
    <circle cx="126.534" cy="195.325" r="9.139" fill="#D7EFFE"/>
    <circle cx="126.534" cy="256.254" r="9.139" fill="#D7EFFE"/>
    <circle cx="126.534" cy="317.183" r="9.139" fill="#D7EFFE"/>
    <circle cx="350.448" cy="317.183" r="9.139" fill="#D7EFFE"/>
    <circle cx="350.448" cy="256.254" r="9.139" fill="#D7EFFE"/>
    <circle cx="350.448" cy="195.324" r="9.139" fill="#D7EFFE"/>
</svg>