<svg width="240" height="240" fill="none" xmlns="http://www.w3.org/2000/svg"><path d="M52.442 107.112v8.656c2.315 0 4.464.916 6.077 2.539 3.348 3.371 3.348 8.864 0 12.276-1.117 1.124-5.83 4.744-11.782 8.157-7.979 4.578-12.361 5.493-14.139 5.66.166-1.998 1.24-6.076 4.754-12.61 3.68-6.825 7.855-12.318 8.971-13.442a8.578 8.578 0 016.077-2.538l.042-8.698a17.063 17.063 0 00-12.154 5.077c-4.465 4.453-22.283 30.629-14.221 38.744 1.446 1.457 3.513 2.081 5.911 2.081 10.873 0 28.98-12.693 32.618-16.355 6.697-6.742 6.697-17.728 0-24.47-3.349-3.412-7.772-5.077-12.154-5.077zM127.227 175.235a17.134 17.134 0 00-12.154-5.077v8.656c2.315 0 4.465.915 6.077 2.538a8.696 8.696 0 012.522 6.118c0 2.33-.91 4.494-2.522 6.117-1.116 1.124-5.829 4.744-11.782 8.157-7.979 4.578-12.36 5.493-14.138 5.66.165-1.998 1.24-6.076 4.754-12.61 3.679-6.825 7.854-12.318 8.97-13.442a8.58 8.58 0 016.077-2.538v-8.656a17.065 17.065 0 00-12.154 5.077c-4.464 4.494-22.282 30.629-14.18 38.786 1.448 1.456 3.515 2.08 5.912 2.08 10.873 0 28.98-12.692 32.618-16.355 6.738-6.783 6.738-17.769 0-24.511z" fill="#073042"/><path d="M183.118 85.308c-1.447-1.457-1.447-3.829 0-5.244 1.447-1.456 3.803-1.456 5.209 0 1.447 1.457 1.447 3.829 0 5.244-1.406 1.456-3.762 1.456-5.209 0zM154.263 56.26c-1.447-1.456-1.447-3.828 0-5.243 1.447-1.457 3.803-1.457 5.209 0 1.446 1.456 1.446 3.828 0 5.243a3.651 3.651 0 01-5.209 0zm-10.914 103.165l47.748-48.066c9.839-11.694 12.774-27.008 8.681-40.95l14.263-3.828a1.526 1.526 0 001.075-1.914 1.514 1.514 0 00-1.902-1.082l-14.428 3.911c-2.191-5.909-5.705-11.527-10.542-16.396-4.836-4.869-10.417-8.406-16.288-10.612l3.886-14.524a1.576 1.576 0 00-1.075-1.914 1.563 1.563 0 00-1.901 1.082l-3.804 14.357c-13.849-4.12-29.062-1.165-40.678 8.74L80.636 96.293l62.713 63.131z" fill="#3DDC84"/><path d="M95.973 111.732l36.007-36.247c6.573-6.617 6.573-17.437 0-24.054-6.573-6.617-17.321-6.617-23.894 0l-9.55 9.613-26.458 26.634M151.41 167.538l36.007-36.247c6.573-6.617 6.573-17.437 0-24.054-6.573-6.617-17.321-6.617-23.894 0l-9.55 9.613-26.458 26.634" fill="#00B975"/><path d="M128.466 71.95c6.573-6.617 6.573-17.437 0-24.054-6.573-6.617-17.321-6.617-23.894 0l-9.55 9.614L67.53 85.184l-5.003 5.035c-1.157 1.166-1.157 3.121 0 4.287l19.596 19.725c1.157 1.166 3.1 1.166 4.3 0l5.001-5.035 37.041-37.246zM191.097 134.999c6.574-6.617 6.574-17.437 0-24.053-6.573-6.617-17.321-6.617-23.894 0l-9.55 9.613-27.491 27.674-5.002 5.035c-1.158 1.166-1.158 3.122 0 4.287l19.595 19.726c1.158 1.165 3.101 1.165 4.299 0l5.003-5.036 37.04-37.246z" fill="#4285F4"/></svg>