<svg width="503" height="325" fill="none" xmlns="http://www.w3.org/2000/svg">
  <g clip-path="url(#clip0)">
    <path
      d="M25.074 229.091c2.802 0 5.074-2.259 5.074-5.046 0-2.786-2.272-5.045-5.074-5.045S20 221.259 20 224.045c0 2.787 2.272 5.046 5.074 5.046zm5-166.001c2.802 0 5.074-2.258 5.074-5.045 0-2.786-2.272-5.045-5.074-5.045S25 55.259 25 58.045c0 2.787 2.272 5.046 5.074 5.046zm86 90.001c2.802 0 5.074-2.259 5.074-5.046 0-2.786-2.272-5.045-5.074-5.045S111 145.259 111 148.045c0 2.787 2.272 5.046 5.074 5.046zm373 102c2.802 0 5.074-2.259 5.074-5.046 0-2.786-2.272-5.045-5.074-5.045S484 247.259 484 250.045c0 2.787 2.272 5.046 5.074 5.046zm-62-182.001c2.802 0 5.074-2.258 5.074-5.045 0-2.786-2.272-5.045-5.074-5.045S422 65.259 422 68.045c0 2.787 2.272 5.046 5.074 5.046z"
      fill="#F1D949"/>
    <path
      d="M336.175 83.253h-88.816c-12.336 0-22.419 10.084-22.419 22.422V301.47c0 12.337 10.083 22.422 22.419 22.422h111.234V105.675a22.342 22.342 0 00-22.418-22.422z"
      fill="#4285F4"/>
    <path d="M347.437 295.998H256.69c-10.083 0-20.595-2.253-20.595-12.338V111.254H347.33v184.744h.107z" fill="#003144"/>
    <path d="M283.078 97.092h26.387" stroke="#003144" stroke-width="3.53" stroke-miterlimit="10" stroke-linecap="round"
          stroke-linejoin="round"/>
    <path
      d="M275.248 243.75c-4.291 0-7.83-3.54-7.83-7.832 0-4.291 3.539-7.831 7.83-7.831s7.83 3.54 7.83 7.831c.108 4.292-3.432 7.832-7.83 7.832zm-86.885 0c-4.291 0-7.83-3.54-7.83-7.832 0-4.291 3.539-7.831 7.83-7.831s7.83 3.54 7.83 7.831c0 4.292-3.539 7.832-7.83 7.832zm89.781-47.42l15.768-27.25a3.415 3.415 0 00-1.18-4.506 3.414 3.414 0 00-4.505 1.18l-15.875 27.572c-12.228-5.578-25.851-8.69-40.439-8.69-14.588 0-28.318 3.112-40.439 8.69l-15.876-27.572c-.858-1.609-2.896-2.145-4.505-1.18-1.609.858-2.145 2.897-1.18 4.506l15.768 27.25c-27.031 14.698-45.48 42.056-48.162 74.349h189.002c-3.003-32.293-21.453-59.651-48.377-74.349z"
      fill="#3DDC84"/>
    <path d="M265.486 111.253v20.063h-31.965c-4.719 0-8.581-3.863-8.581-8.583v-11.48h40.546z" fill="#F86734"/>
    <path d="M224.899 93.272v17.916h40.547V93.272h-40.547z" fill="#EFF7CF"/>
    <path
      d="M245.107 104.388c22.393 0 40.547-18.157 40.547-40.554 0-22.397-18.154-40.553-40.547-40.553-22.393 0-40.546 18.156-40.546 40.553s18.153 40.554 40.546 40.554z"
      fill="#EFF7CF"/>
    <path
      d="M245.107 0v13.303m64.36 50.639h-13.408m-5.47-45.167l-8.796 8.69m-178.6 280.442h-6.757v-28.752c0-4.399-3.54-8.047-8.046-8.047h-7.937v52.784H103.3c4.398 0 8.045-3.54 8.045-8.046 0-4.506-3.754-7.939-8.152-7.939zm-22.74-97.629v44.738h8.045c4.398 0 8.045-3.541 8.045-8.046v-28.753h6.757c4.398 0 8.045-3.54 8.045-8.046 0-4.399-3.539-8.046-8.045-8.046H80.453v8.153z"
      stroke="#F86734" stroke-width="3.53" stroke-miterlimit="10" stroke-linecap="round" stroke-linejoin="round"/>
    <path
      d="M59 263.169c0 4.399 3.54 8.047 8.045 8.047h13.408V255.23H67.045c-4.505-.107-8.045 3.434-8.045 7.939zm339.817-44.844h6.758v28.752c0 4.399 3.54 8.046 8.045 8.046h8.045v-52.891h-22.848c-4.398 0-8.045 3.54-8.045 8.046 0 4.506 3.54 8.047 8.045 8.047zm22.742 97.629v-44.738h-8.044c-4.398 0-8.045 3.541-8.045 8.047v28.645h-6.758c-4.398 0-8.045 3.54-8.045 8.046 0 4.506 3.54 8.046 8.045 8.046h22.847v-8.046zm21.454-52.785c0-4.398-3.54-8.046-8.045-8.046H421.56v15.985h13.408c4.398 0 8.045-3.54 8.045-7.939z"
      stroke="#F86734" stroke-width="3.53" stroke-miterlimit="10" stroke-linecap="round" stroke-linejoin="round"/>
    <path
      d="M107.033 63.066c6.093 0 11.033-4.94 11.033-11.033 0-6.093-4.94-11.033-11.033-11.033C100.94 41 96 45.94 96 52.033c0 6.093 4.94 11.033 11.033 11.033zm361 85c6.093 0 11.033-4.94 11.033-11.033 0-6.093-4.94-11.033-11.033-11.033-6.093 0-11.033 4.94-11.033 11.033 0 6.093 4.94 11.033 11.033 11.033z"
      stroke="#4285F4" stroke-width="3.502" stroke-miterlimit="10"/>
  </g>
  <defs>
    <clipPath id="clip0">
      <path fill="#fff" d="M0 0h502.779v324.039H0z"/>
    </clipPath>
  </defs>
</svg>
